<svg width="30" height="30" viewBox="0 0 30 30" fill="none" xmlns="http://www.w3.org/2000/svg">
<path opacity="0.15" d="M26.25 15C26.25 21.2132 21.2132 26.25 15 26.25C8.7868 26.25 3.75 21.2132 3.75 15C3.75 8.7868 8.7868 3.75 15 3.75C21.2132 3.75 26.25 8.7868 26.25 15Z" fill="#D20000"/>
<path d="M16 21.2375C16 20.6852 15.5523 20.2375 15 20.2375C14.4477 20.2375 14 20.6852 14 21.2375H16ZM14 21.25C14 21.8023 14.4477 22.25 15 22.25C15.5523 22.25 16 21.8023 16 21.25H14ZM16 8.75C16 8.19772 15.5523 7.75 15 7.75C14.4477 7.75 14 8.19772 14 8.75H16ZM14 17.5C14 18.0523 14.4477 18.5 15 18.5C15.5523 18.5 16 18.0523 16 17.5H14ZM14 21.2375V21.25H16V21.2375H14ZM14 8.75V17.5H16V8.75H14ZM25.25 15C25.25 20.6609 20.6609 25.25 15 25.25V27.25C21.7655 27.25 27.25 21.7655 27.25 15H25.25ZM15 25.25C9.33908 25.25 4.75 20.6609 4.75 15H2.75C2.75 21.7655 8.23451 27.25 15 27.25V25.25ZM4.75 15C4.75 9.33908 9.33908 4.75 15 4.75V2.75C8.23451 2.75 2.75 8.23451 2.75 15H4.75ZM15 4.75C20.6609 4.75 25.25 9.33908 25.25 15H27.25C27.25 8.23451 21.7655 2.75 15 2.75V4.75Z" fill="#D20000"/>
</svg>
